<svg xmlns="http://www.w3.org/2000/svg" viewBox="0 0 1944 1680" width="1944" height="1680">
<rect width="100%" height="100%" fill="#1a1a2e"/>
<line x1="-36" y1="60" x2="-36" y2="1620" stroke="#252540" stroke-width="0.5" stroke-dasharray="4,4"/>
<line x1="60" y1="60" x2="60" y2="1620" stroke="#252540" stroke-width="0.5" stroke-dasharray="4,4"/>
<line x1="156" y1="60" x2="156" y2="1620" stroke="#252540" stroke-width="0.5" stroke-dasharray="4,4"/>
<line x1="252" y1="60" x2="252" y2="1620" stroke="#252540" stroke-width="0.5" stroke-dasharray="4,4"/>
<line x1="348" y1="60" x2="348" y2="1620" stroke="#252540" stroke-width="0.5" stroke-dasharray="4,4"/>
<line x1="444" y1="60" x2="444" y2="1620" stroke="#252540" stroke-width="0.5" stroke-dasharray="4,4"/>
<line x1="540" y1="60" x2="540" y2="1620" stroke="#252540" stroke-width="0.5" stroke-dasharray="4,4"/>
<line x1="636" y1="60" x2="636" y2="1620" stroke="#252540" stroke-width="0.5" stroke-dasharray="4,4"/>
<line x1="732" y1="60" x2="732" y2="1620" stroke="#252540" stroke-width="0.5" stroke-dasharray="4,4"/>
<line x1="828" y1="60" x2="828" y2="1620" stroke="#252540" stroke-width="0.5" stroke-dasharray="4,4"/>
<line x1="924" y1="60" x2="924" y2="1620" stroke="#252540" stroke-width="0.5" stroke-dasharray="4,4"/>
<line x1="1020" y1="60" x2="1020" y2="1620" stroke="#252540" stroke-width="0.5" stroke-dasharray="4,4"/>
<line x1="1116" y1="60" x2="1116" y2="1620" stroke="#252540" stroke-width="0.5" stroke-dasharray="4,4"/>
<line x1="1212" y1="60" x2="1212" y2="1620" stroke="#252540" stroke-width="0.5" stroke-dasharray="4,4"/>
<line x1="1308" y1="60" x2="1308" y2="1620" stroke="#252540" stroke-width="0.5" stroke-dasharray="4,4"/>
<line x1="1404" y1="60" x2="1404" y2="1620" stroke="#252540" stroke-width="0.5" stroke-dasharray="4,4"/>
<line x1="1500" y1="60" x2="1500" y2="1620" stroke="#252540" stroke-width="0.5" stroke-dasharray="4,4"/>
<line x1="1596" y1="60" x2="1596" y2="1620" stroke="#252540" stroke-width="0.5" stroke-dasharray="4,4"/>
<line x1="1692" y1="60" x2="1692" y2="1620" stroke="#252540" stroke-width="0.5" stroke-dasharray="4,4"/>
<line x1="1788" y1="60" x2="1788" y2="1620" stroke="#252540" stroke-width="0.5" stroke-dasharray="4,4"/>
<line x1="1884" y1="60" x2="1884" y2="1620" stroke="#252540" stroke-width="0.5" stroke-dasharray="4,4"/>
<line x1="1980" y1="60" x2="1980" y2="1620" stroke="#252540" stroke-width="0.5" stroke-dasharray="4,4"/>
<line x1="60" y1="-70" x2="1884" y2="-70" stroke="#252540" stroke-width="0.5" stroke-dasharray="4,4"/>
<line x1="60" y1="60" x2="1884" y2="60" stroke="#252540" stroke-width="0.5" stroke-dasharray="4,4"/>
<line x1="60" y1="190" x2="1884" y2="190" stroke="#252540" stroke-width="0.5" stroke-dasharray="4,4"/>
<line x1="60" y1="320" x2="1884" y2="320" stroke="#252540" stroke-width="0.5" stroke-dasharray="4,4"/>
<line x1="60" y1="450" x2="1884" y2="450" stroke="#252540" stroke-width="0.5" stroke-dasharray="4,4"/>
<line x1="60" y1="580" x2="1884" y2="580" stroke="#252540" stroke-width="0.5" stroke-dasharray="4,4"/>
<line x1="60" y1="710" x2="1884" y2="710" stroke="#252540" stroke-width="0.5" stroke-dasharray="4,4"/>
<line x1="60" y1="840" x2="1884" y2="840" stroke="#252540" stroke-width="0.5" stroke-dasharray="4,4"/>
<line x1="60" y1="970" x2="1884" y2="970" stroke="#252540" stroke-width="0.5" stroke-dasharray="4,4"/>
<line x1="60" y1="1100" x2="1884" y2="1100" stroke="#252540" stroke-width="0.5" stroke-dasharray="4,4"/>
<line x1="60" y1="1230" x2="1884" y2="1230" stroke="#252540" stroke-width="0.5" stroke-dasharray="4,4"/>
<line x1="60" y1="1360" x2="1884" y2="1360" stroke="#252540" stroke-width="0.5" stroke-dasharray="4,4"/>
<line x1="60" y1="1490" x2="1884" y2="1490" stroke="#252540" stroke-width="0.5" stroke-dasharray="4,4"/>
<line x1="60" y1="1620" x2="1884" y2="1620" stroke="#252540" stroke-width="0.5" stroke-dasharray="4,4"/>
<line x1="60" y1="1750" x2="1884" y2="1750" stroke="#252540" stroke-width="0.5" stroke-dasharray="4,4"/>
<rect x="1744" y="10" width="190" height="90" rx="4" fill="#00000088" stroke="#252540"/>
<text x="1754" y="28" fill="#e0e0f0" font-size="10" font-family="monospace" font-weight="bold">Legend</text>
<line x1="1754" y1="40" x2="1794" y2="40" stroke="#5a5aff" stroke-width="2"/>
<text x="1799" y="44" fill="#e0e0f0" font-size="9" font-family="monospace">prerequisite</text>
<line x1="1754" y1="58" x2="1794" y2="58" stroke="#ff4444" stroke-width="2" stroke-dasharray="6,4"/>
<text x="1799" y="62" fill="#e0e0f0" font-size="9" font-family="monospace">mut. exclusive</text>
<line x1="1754" y1="76" x2="1794" y2="76" stroke="#888844" stroke-width="1" stroke-dasharray="2,3"/>
<text x="1799" y="80" fill="#e0e0f0" font-size="9" font-family="monospace">rel_position_id</text>
<rect x="95" y="1395" width="10" height="10" rx="2" fill="none" stroke="#ffaa33" stroke-width="1"/>
<text x="108" y="1404" fill="#ffaa33" font-size="8" font-family="monospace">CP</text>
<text x="65" y="50" fill="#3a5a3a" font-size="8" font-family="monospace">shared: owb_technology_of_the_future, owb_modern_weapons</text>
<path d="M1068.0,435.0 L1068.0,465.0" stroke="#5a5aff" stroke-width="1.5" fill="none" opacity="0.6"/>
<circle cx="1068.0" cy="465.0" r="3" fill="#5a5aff" opacity="0.6"/>
<path d="M1068.0,565.0 L1068.0,595.0" stroke="#5a5aff" stroke-width="1.5" fill="none" opacity="0.6"/>
<circle cx="1068.0" cy="595.0" r="3" fill="#5a5aff" opacity="0.6"/>
<path d="M1068.0,695.0 L1068.0,710.0 L972.0,710.0 L972.0,725.0" stroke="#5a5aff" stroke-width="1.5" fill="none" opacity="0.6"/>
<circle cx="972.0" cy="725.0" r="3" fill="#5a5aff" opacity="0.6"/>
<path d="M972.0,825.0 L972.0,855.0" stroke="#5a5aff" stroke-width="1.5" fill="none" opacity="0.6"/>
<circle cx="972.0" cy="855.0" r="3" fill="#5a5aff" opacity="0.6"/>
<path d="M1068.0,695.0 L1068.0,710.0 L1164.0,710.0 L1164.0,725.0" stroke="#5a5aff" stroke-width="1.5" fill="none" opacity="0.6"/>
<circle cx="1164.0" cy="725.0" r="3" fill="#5a5aff" opacity="0.6"/>
<path d="M1164.0,825.0 L1164.0,855.0" stroke="#5a5aff" stroke-width="1.5" fill="none" opacity="0.6"/>
<circle cx="1164.0" cy="855.0" r="3" fill="#5a5aff" opacity="0.6"/>
<path d="M972.0,955.0 L972.0,970.0 L1068.0,970.0 L1068.0,985.0" stroke="#5a5aff" stroke-width="1.5" fill="none" opacity="0.6"/>
<circle cx="1068.0" cy="985.0" r="3" fill="#5a5aff" opacity="0.6"/>
<path d="M1164.0,955.0 L1164.0,970.0 L1068.0,970.0 L1068.0,985.0" stroke="#5a5aff" stroke-width="1.5" fill="none" opacity="0.6"/>
<circle cx="1068.0" cy="985.0" r="3" fill="#5a5aff" opacity="0.6"/>
<path d="M1068.0,1085.0 L1068.0,1115.0" stroke="#5a5aff" stroke-width="1.5" fill="none" opacity="0.6"/>
<circle cx="1068.0" cy="1115.0" r="3" fill="#5a5aff" opacity="0.6"/>
<path d="M1068.0,1215.0 L1068.0,1245.0" stroke="#5a5aff" stroke-width="1.5" fill="none" opacity="0.6"/>
<circle cx="1068.0" cy="1245.0" r="3" fill="#5a5aff" opacity="0.6"/>
<path d="M1740.0,1215.0 L1740.0,1245.0" stroke="#5a5aff" stroke-width="1.5" fill="none" opacity="0.6"/>
<circle cx="1740.0" cy="1245.0" r="3" fill="#5a5aff" opacity="0.6"/>
<path d="M396.0,1215.0 L396.0,1230.0 L492.0,1230.0 L492.0,1245.0" stroke="#5a5aff" stroke-width="1.5" fill="none" opacity="0.6"/>
<circle cx="492.0" cy="1245.0" r="3" fill="#5a5aff" opacity="0.6"/>
<path d="M588.0,1215.0 L588.0,1230.0 L492.0,1230.0 L492.0,1245.0" stroke="#5a5aff" stroke-width="1.5" fill="none" opacity="0.6"/>
<circle cx="492.0" cy="1245.0" r="3" fill="#5a5aff" opacity="0.6"/>
<path d="M1548.0,1215.0 L1548.0,1245.0" stroke="#5a5aff" stroke-width="1.5" fill="none" opacity="0.6"/>
<circle cx="1548.0" cy="1245.0" r="3" fill="#5a5aff" opacity="0.6"/>
<path d="M492.0,1085.0 L492.0,1100.0 L396.0,1100.0 L396.0,1115.0" stroke="#5a5aff" stroke-width="1.5" fill="none" opacity="0.6"/>
<circle cx="396.0" cy="1115.0" r="3" fill="#5a5aff" opacity="0.6"/>
<path d="M588.0,1215.0 L588.0,1230.0 L684.0,1230.0 L684.0,1245.0" stroke="#5a5aff" stroke-width="1.5" fill="none" opacity="0.6"/>
<circle cx="684.0" cy="1245.0" r="3" fill="#5a5aff" opacity="0.6"/>
<path d="M300.0,1345.0 L300.0,1360.0 L492.0,1360.0 L492.0,1375.0" stroke="#5a5aff" stroke-width="1.5" fill="none" opacity="0.6"/>
<circle cx="492.0" cy="1375.0" r="3" fill="#5a5aff" opacity="0.6"/>
<path d="M492.0,1345.0 L492.0,1375.0" stroke="#5a5aff" stroke-width="1.5" fill="none" opacity="0.6"/>
<circle cx="492.0" cy="1375.0" r="3" fill="#5a5aff" opacity="0.6"/>
<path d="M684.0,1345.0 L684.0,1360.0 L492.0,1360.0 L492.0,1375.0" stroke="#5a5aff" stroke-width="1.5" fill="none" opacity="0.6"/>
<circle cx="492.0" cy="1375.0" r="3" fill="#5a5aff" opacity="0.6"/>
<path d="M1548.0,1345.0 L1548.0,1360.0 L1644.0,1360.0 L1644.0,1375.0" stroke="#5a5aff" stroke-width="1.5" fill="none" opacity="0.6"/>
<circle cx="1644.0" cy="1375.0" r="3" fill="#5a5aff" opacity="0.6"/>
<path d="M1740.0,1345.0 L1740.0,1360.0 L1644.0,1360.0 L1644.0,1375.0" stroke="#5a5aff" stroke-width="1.5" fill="none" opacity="0.6"/>
<circle cx="1644.0" cy="1375.0" r="3" fill="#5a5aff" opacity="0.6"/>
<path d="M1644.0,1085.0 L1644.0,1100.0 L1740.0,1100.0 L1740.0,1115.0" stroke="#5a5aff" stroke-width="1.5" fill="none" opacity="0.6"/>
<circle cx="1740.0" cy="1115.0" r="3" fill="#5a5aff" opacity="0.6"/>
<path d="M492.0,1085.0 L492.0,1100.0 L588.0,1100.0 L588.0,1115.0" stroke="#5a5aff" stroke-width="1.5" fill="none" opacity="0.6"/>
<circle cx="588.0" cy="1115.0" r="3" fill="#5a5aff" opacity="0.6"/>
<path d="M1644.0,1085.0 L1644.0,1100.0 L1548.0,1100.0 L1548.0,1115.0" stroke="#5a5aff" stroke-width="1.5" fill="none" opacity="0.6"/>
<circle cx="1548.0" cy="1115.0" r="3" fill="#5a5aff" opacity="0.6"/>
<path d="M396.0,1215.0 L396.0,1230.0 L300.0,1230.0 L300.0,1245.0" stroke="#5a5aff" stroke-width="1.5" fill="none" opacity="0.6"/>
<circle cx="300.0" cy="1245.0" r="3" fill="#5a5aff" opacity="0.6"/>
<line x1="1068.0" y1="435.0" x2="1068.0" y2="465.0" stroke="#888844" stroke-width="0.8" stroke-dasharray="3,4" fill="none" opacity="0.4"/>
<line x1="1068.0" y1="565.0" x2="1068.0" y2="595.0" stroke="#888844" stroke-width="0.8" stroke-dasharray="3,4" fill="none" opacity="0.4"/>
<line x1="1068.0" y1="695.0" x2="972.0" y2="725.0" stroke="#888844" stroke-width="0.8" stroke-dasharray="3,4" fill="none" opacity="0.4"/>
<line x1="972.0" y1="825.0" x2="972.0" y2="855.0" stroke="#888844" stroke-width="0.8" stroke-dasharray="3,4" fill="none" opacity="0.4"/>
<line x1="1068.0" y1="695.0" x2="1164.0" y2="725.0" stroke="#888844" stroke-width="0.8" stroke-dasharray="3,4" fill="none" opacity="0.4"/>
<line x1="1164.0" y1="825.0" x2="1164.0" y2="855.0" stroke="#888844" stroke-width="0.8" stroke-dasharray="3,4" fill="none" opacity="0.4"/>
<line x1="1164.0" y1="955.0" x2="1068.0" y2="985.0" stroke="#888844" stroke-width="0.8" stroke-dasharray="3,4" fill="none" opacity="0.4"/>
<line x1="1068.0" y1="1085.0" x2="1068.0" y2="1115.0" stroke="#888844" stroke-width="0.8" stroke-dasharray="3,4" fill="none" opacity="0.4"/>
<line x1="1068.0" y1="1215.0" x2="1068.0" y2="1245.0" stroke="#888844" stroke-width="0.8" stroke-dasharray="3,4" fill="none" opacity="0.4"/>
<line x1="1740.0" y1="1215.0" x2="1740.0" y2="1245.0" stroke="#888844" stroke-width="0.8" stroke-dasharray="3,4" fill="none" opacity="0.4"/>
<line x1="396.0" y1="1215.0" x2="492.0" y2="1245.0" stroke="#888844" stroke-width="0.8" stroke-dasharray="3,4" fill="none" opacity="0.4"/>
<line x1="1548.0" y1="1215.0" x2="1548.0" y2="1245.0" stroke="#888844" stroke-width="0.8" stroke-dasharray="3,4" fill="none" opacity="0.4"/>
<line x1="492.0" y1="1085.0" x2="396.0" y2="1115.0" stroke="#888844" stroke-width="0.8" stroke-dasharray="3,4" fill="none" opacity="0.4"/>
<line x1="588.0" y1="1215.0" x2="684.0" y2="1245.0" stroke="#888844" stroke-width="0.8" stroke-dasharray="3,4" fill="none" opacity="0.4"/>
<line x1="492.0" y1="1345.0" x2="492.0" y2="1375.0" stroke="#888844" stroke-width="0.8" stroke-dasharray="3,4" fill="none" opacity="0.4"/>
<line x1="1740.0" y1="1345.0" x2="1644.0" y2="1375.0" stroke="#888844" stroke-width="0.8" stroke-dasharray="3,4" fill="none" opacity="0.4"/>
<line x1="1644.0" y1="1085.0" x2="1740.0" y2="1115.0" stroke="#888844" stroke-width="0.8" stroke-dasharray="3,4" fill="none" opacity="0.4"/>
<line x1="492.0" y1="1085.0" x2="588.0" y2="1115.0" stroke="#888844" stroke-width="0.8" stroke-dasharray="3,4" fill="none" opacity="0.4"/>
<line x1="1644.0" y1="1085.0" x2="1548.0" y2="1115.0" stroke="#888844" stroke-width="0.8" stroke-dasharray="3,4" fill="none" opacity="0.4"/>
<line x1="396.0" y1="1215.0" x2="300.0" y2="1245.0" stroke="#888844" stroke-width="0.8" stroke-dasharray="3,4" fill="none" opacity="0.4"/>
<rect x="1601.0" y="1375.0" width="86" height="100" rx="6" fill="#2a3a2a" stroke="#3a5a3a" stroke-width="1.5"/>
<text x="1644.0" y="1413.0" text-anchor="middle" fill="#e0e0f0" font-size="9" font-family="monospace">a</text>
<text x="1644.0" y="1425.0" text-anchor="middle" fill="#e0e0f0" font-size="9" font-family="monospace">professional</text>
<text x="1644.0" y="1437.0" text-anchor="middle" fill="#e0e0f0" font-size="9" font-family="monospace">army</text>
<text x="1644.0" y="1467.0" text-anchor="middle" fill="#9090b0" font-size="7" font-family="monospace">(16,8)</text>
<circle cx="1678.0" cy="1384.0" r="8" fill="#5a5aff" opacity="0.8"/>
<text x="1678.0" y="1387.0" text-anchor="middle" fill="#fff" font-size="8" font-family="monospace">2</text>
<rect x="449.0" y="1245.0" width="86" height="100" rx="6" fill="#2a3a2a" stroke="#3a5a3a" stroke-width="1.5"/>
<text x="492.0" y="1289.0" text-anchor="middle" fill="#e0e0f0" font-size="9" font-family="monospace">across the</text>
<text x="492.0" y="1301.0" text-anchor="middle" fill="#e0e0f0" font-size="9" font-family="monospace">seas</text>
<text x="492.0" y="1337.0" text-anchor="middle" fill="#9090b0" font-size="7" font-family="monospace">(4,7)</text>
<circle cx="526.0" cy="1254.0" r="8" fill="#5a5aff" opacity="0.8"/>
<text x="526.0" y="1257.0" text-anchor="middle" fill="#fff" font-size="8" font-family="monospace">2</text>
<rect x="545.0" y="1115.0" width="86" height="100" rx="6" fill="#2a3a2a" stroke="#3a5a3a" stroke-width="1.5"/>
<text x="588.0" y="1165.0" text-anchor="middle" fill="#e0e0f0" font-size="9" font-family="monospace">air_effort</text>
<text x="588.0" y="1207.0" text-anchor="middle" fill="#9090b0" font-size="7" font-family="monospace">(5,6)</text>
<rect x="641.0" y="1245.0" width="86" height="100" rx="6" fill="#2a3a2a" stroke="#3a5a3a" stroke-width="1.5"/>
<text x="684.0" y="1289.0" text-anchor="middle" fill="#e0e0f0" font-size="9" font-family="monospace">expand the</text>
<text x="684.0" y="1301.0" text-anchor="middle" fill="#e0e0f0" font-size="9" font-family="monospace">armory</text>
<text x="684.0" y="1337.0" text-anchor="middle" fill="#9090b0" font-size="7" font-family="monospace">(6,7)</text>
<rect x="257.0" y="1245.0" width="86" height="100" rx="6" fill="#2a3a2a" stroke="#3a5a3a" stroke-width="1.5"/>
<text x="300.0" y="1289.0" text-anchor="middle" fill="#e0e0f0" font-size="9" font-family="monospace">expanding the</text>
<text x="300.0" y="1301.0" text-anchor="middle" fill="#e0e0f0" font-size="9" font-family="monospace">vault</text>
<text x="300.0" y="1337.0" text-anchor="middle" fill="#9090b0" font-size="7" font-family="monospace">(2,7)</text>
<rect x="449.0" y="1375.0" width="86" height="100" rx="6" fill="#2a3a2a" stroke="#ffaa33" stroke-width="1.5"/>
<text x="492.0" y="1419.0" text-anchor="middle" fill="#e0e0f0" font-size="9" font-family="monospace">knowledge</text>
<text x="492.0" y="1431.0" text-anchor="middle" fill="#e0e0f0" font-size="9" font-family="monospace">from the past</text>
<text x="492.0" y="1467.0" text-anchor="middle" fill="#9090b0" font-size="7" font-family="monospace">(4,8)</text>
<circle cx="526.0" cy="1384.0" r="8" fill="#5a5aff" opacity="0.8"/>
<text x="526.0" y="1387.0" text-anchor="middle" fill="#fff" font-size="8" font-family="monospace">3</text>
<rect x="1601.0" y="985.0" width="86" height="100" rx="6" fill="#2a3a2a" stroke="#3a5a3a" stroke-width="1.5"/>
<text x="1644.0" y="1029.0" text-anchor="middle" fill="#e0e0f0" font-size="9" font-family="monospace">modern</text>
<text x="1644.0" y="1041.0" text-anchor="middle" fill="#e0e0f0" font-size="9" font-family="monospace">weapons</text>
<text x="1644.0" y="1077.0" text-anchor="middle" fill="#9090b0" font-size="7" font-family="monospace">(16,5)</text>
<rect x="929.0" y="855.0" width="86" height="100" rx="6" fill="#2d2d4a" stroke="#4a4a8a" stroke-width="1.5"/>
<text x="972.0" y="887.0" text-anchor="middle" fill="#e0e0f0" font-size="9" font-family="monospace">mogushan</text>
<text x="972.0" y="899.0" text-anchor="middle" fill="#e0e0f0" font-size="9" font-family="monospace">vault</text>
<text x="972.0" y="911.0" text-anchor="middle" fill="#e0e0f0" font-size="9" font-family="monospace">clearing out</text>
<text x="972.0" y="923.0" text-anchor="middle" fill="#e0e0f0" font-size="9" font-family="monospace">the hills</text>
<text x="972.0" y="947.0" text-anchor="middle" fill="#9090b0" font-size="7" font-family="monospace">(9,4)</text>
<rect x="1025.0" y="595.0" width="86" height="100" rx="6" fill="#2d2d4a" stroke="#4a4a8a" stroke-width="1.5"/>
<text x="1068.0" y="627.0" text-anchor="middle" fill="#e0e0f0" font-size="9" font-family="monospace">mogushan</text>
<text x="1068.0" y="639.0" text-anchor="middle" fill="#e0e0f0" font-size="9" font-family="monospace">vault</text>
<text x="1068.0" y="651.0" text-anchor="middle" fill="#e0e0f0" font-size="9" font-family="monospace">emerging from</text>
<text x="1068.0" y="663.0" text-anchor="middle" fill="#e0e0f0" font-size="9" font-family="monospace">the vault</text>
<text x="1068.0" y="687.0" text-anchor="middle" fill="#9090b0" font-size="7" font-family="monospace">(10,2)</text>
<rect x="929.0" y="725.0" width="86" height="100" rx="6" fill="#2d2d4a" stroke="#4a4a8a" stroke-width="1.5"/>
<text x="972.0" y="757.0" text-anchor="middle" fill="#e0e0f0" font-size="9" font-family="monospace">mogushan</text>
<text x="972.0" y="769.0" text-anchor="middle" fill="#e0e0f0" font-size="9" font-family="monospace">vault</text>
<text x="972.0" y="781.0" text-anchor="middle" fill="#e0e0f0" font-size="9" font-family="monospace">expanding</text>
<text x="972.0" y="793.0" text-anchor="middle" fill="#e0e0f0" font-size="9" font-family="monospace">east</text>
<text x="972.0" y="817.0" text-anchor="middle" fill="#9090b0" font-size="7" font-family="monospace">(9,3)</text>
<rect x="1121.0" y="725.0" width="86" height="100" rx="6" fill="#2d2d4a" stroke="#4a4a8a" stroke-width="1.5"/>
<text x="1164.0" y="757.0" text-anchor="middle" fill="#e0e0f0" font-size="9" font-family="monospace">mogushan</text>
<text x="1164.0" y="769.0" text-anchor="middle" fill="#e0e0f0" font-size="9" font-family="monospace">vault</text>
<text x="1164.0" y="781.0" text-anchor="middle" fill="#e0e0f0" font-size="9" font-family="monospace">expanding to</text>
<text x="1164.0" y="793.0" text-anchor="middle" fill="#e0e0f0" font-size="9" font-family="monospace">the south</text>
<text x="1164.0" y="817.0" text-anchor="middle" fill="#9090b0" font-size="7" font-family="monospace">(11,3)</text>
<rect x="1121.0" y="855.0" width="86" height="100" rx="6" fill="#2d2d4a" stroke="#4a4a8a" stroke-width="1.5"/>
<text x="1164.0" y="893.0" text-anchor="middle" fill="#e0e0f0" font-size="9" font-family="monospace">mogushan</text>
<text x="1164.0" y="905.0" text-anchor="middle" fill="#e0e0f0" font-size="9" font-family="monospace">vault into</text>
<text x="1164.0" y="917.0" text-anchor="middle" fill="#e0e0f0" font-size="9" font-family="monospace">the vale</text>
<text x="1164.0" y="947.0" text-anchor="middle" fill="#9090b0" font-size="7" font-family="monospace">(11,4)</text>
<rect x="1025.0" y="465.0" width="86" height="100" rx="6" fill="#2d2d4a" stroke="#4a4a8a" stroke-width="1.5"/>
<text x="1068.0" y="503.0" text-anchor="middle" fill="#e0e0f0" font-size="9" font-family="monospace">mogushan</text>
<text x="1068.0" y="515.0" text-anchor="middle" fill="#e0e0f0" font-size="9" font-family="monospace">vault life in</text>
<text x="1068.0" y="527.0" text-anchor="middle" fill="#e0e0f0" font-size="9" font-family="monospace">the vault</text>
<text x="1068.0" y="557.0" text-anchor="middle" fill="#9090b0" font-size="7" font-family="monospace">(10,1)</text>
<rect x="1025.0" y="1245.0" width="86" height="100" rx="6" fill="#2d2d4a" stroke="#4a4a8a" stroke-width="1.5"/>
<text x="1068.0" y="1277.0" text-anchor="middle" fill="#e0e0f0" font-size="9" font-family="monospace">mogushan</text>
<text x="1068.0" y="1289.0" text-anchor="middle" fill="#e0e0f0" font-size="9" font-family="monospace">vault our</text>
<text x="1068.0" y="1301.0" text-anchor="middle" fill="#e0e0f0" font-size="9" font-family="monospace">place on</text>
<text x="1068.0" y="1313.0" text-anchor="middle" fill="#e0e0f0" font-size="9" font-family="monospace">azeroth</text>
<text x="1068.0" y="1337.0" text-anchor="middle" fill="#9090b0" font-size="7" font-family="monospace">(10,7)</text>
<rect x="1025.0" y="985.0" width="86" height="100" rx="6" fill="#2d2d4a" stroke="#4a4a8a" stroke-width="1.5"/>
<text x="1068.0" y="1017.0" text-anchor="middle" fill="#e0e0f0" font-size="9" font-family="monospace">mogushan</text>
<text x="1068.0" y="1029.0" text-anchor="middle" fill="#e0e0f0" font-size="9" font-family="monospace">vault the</text>
<text x="1068.0" y="1041.0" text-anchor="middle" fill="#e0e0f0" font-size="9" font-family="monospace">defenders of</text>
<text x="1068.0" y="1053.0" text-anchor="middle" fill="#e0e0f0" font-size="9" font-family="monospace">this world</text>
<text x="1068.0" y="1077.0" text-anchor="middle" fill="#9090b0" font-size="7" font-family="monospace">(10,5)</text>
<circle cx="1102.0" cy="994.0" r="8" fill="#5a5aff" opacity="0.8"/>
<text x="1102.0" y="997.0" text-anchor="middle" fill="#fff" font-size="8" font-family="monospace">2</text>
<rect x="1025.0" y="335.0" width="86" height="100" rx="6" fill="#2d2d4a" stroke="#4a4a8a" stroke-width="1.5"/>
<text x="1068.0" y="373.0" text-anchor="middle" fill="#e0e0f0" font-size="9" font-family="monospace">mogushan</text>
<text x="1068.0" y="385.0" text-anchor="middle" fill="#e0e0f0" font-size="9" font-family="monospace">vault the</text>
<text x="1068.0" y="397.0" text-anchor="middle" fill="#e0e0f0" font-size="9" font-family="monospace">great war</text>
<text x="1068.0" y="427.0" text-anchor="middle" fill="#9090b0" font-size="7" font-family="monospace">(10,0)</text>
<rect x="1025.0" y="1115.0" width="86" height="100" rx="6" fill="#2d2d4a" stroke="#4a4a8a" stroke-width="1.5"/>
<text x="1068.0" y="1147.0" text-anchor="middle" fill="#e0e0f0" font-size="9" font-family="monospace">mogushan</text>
<text x="1068.0" y="1159.0" text-anchor="middle" fill="#e0e0f0" font-size="9" font-family="monospace">vault</text>
<text x="1068.0" y="1171.0" text-anchor="middle" fill="#e0e0f0" font-size="9" font-family="monospace">utilizing our</text>
<text x="1068.0" y="1183.0" text-anchor="middle" fill="#e0e0f0" font-size="9" font-family="monospace">new lands</text>
<text x="1068.0" y="1207.0" text-anchor="middle" fill="#9090b0" font-size="7" font-family="monospace">(10,6)</text>
<rect x="1505.0" y="1245.0" width="86" height="100" rx="6" fill="#2a3a2a" stroke="#3a5a3a" stroke-width="1.5"/>
<text x="1548.0" y="1289.0" text-anchor="middle" fill="#e0e0f0" font-size="9" font-family="monospace">power armor</text>
<text x="1548.0" y="1301.0" text-anchor="middle" fill="#e0e0f0" font-size="9" font-family="monospace">production</text>
<text x="1548.0" y="1337.0" text-anchor="middle" fill="#9090b0" font-size="7" font-family="monospace">(15,7)</text>
<rect x="353.0" y="1115.0" width="86" height="100" rx="6" fill="#2a3a2a" stroke="#3a5a3a" stroke-width="1.5"/>
<text x="396.0" y="1159.0" text-anchor="middle" fill="#e0e0f0" font-size="9" font-family="monospace">prospect for</text>
<text x="396.0" y="1171.0" text-anchor="middle" fill="#e0e0f0" font-size="9" font-family="monospace">resources</text>
<text x="396.0" y="1207.0" text-anchor="middle" fill="#9090b0" font-size="7" font-family="monospace">(3,6)</text>
<rect x="1697.0" y="1115.0" width="86" height="100" rx="6" fill="#2a3a2a" stroke="#3a5a3a" stroke-width="1.5"/>
<text x="1740.0" y="1153.0" text-anchor="middle" fill="#e0e0f0" font-size="9" font-family="monospace">study</text>
<text x="1740.0" y="1165.0" text-anchor="middle" fill="#e0e0f0" font-size="9" font-family="monospace">historical</text>
<text x="1740.0" y="1177.0" text-anchor="middle" fill="#e0e0f0" font-size="9" font-family="monospace">battles</text>
<text x="1740.0" y="1207.0" text-anchor="middle" fill="#9090b0" font-size="7" font-family="monospace">(17,6)</text>
<rect x="449.0" y="985.0" width="86" height="100" rx="6" fill="#2a3a2a" stroke="#3a5a3a" stroke-width="1.5"/>
<text x="492.0" y="1029.0" text-anchor="middle" fill="#e0e0f0" font-size="9" font-family="monospace">technology of</text>
<text x="492.0" y="1041.0" text-anchor="middle" fill="#e0e0f0" font-size="9" font-family="monospace">the future</text>
<text x="492.0" y="1077.0" text-anchor="middle" fill="#9090b0" font-size="7" font-family="monospace">(4,5)</text>
<rect x="1697.0" y="1245.0" width="86" height="100" rx="6" fill="#2a3a2a" stroke="#3a5a3a" stroke-width="1.5"/>
<text x="1740.0" y="1289.0" text-anchor="middle" fill="#e0e0f0" font-size="9" font-family="monospace">training</text>
<text x="1740.0" y="1301.0" text-anchor="middle" fill="#e0e0f0" font-size="9" font-family="monospace">exercises</text>
<text x="1740.0" y="1337.0" text-anchor="middle" fill="#9090b0" font-size="7" font-family="monospace">(17,7)</text>
<rect x="1505.0" y="1115.0" width="86" height="100" rx="6" fill="#2a3a2a" stroke="#3a5a3a" stroke-width="1.5"/>
<text x="1548.0" y="1159.0" text-anchor="middle" fill="#e0e0f0" font-size="9" font-family="monospace">weapon</text>
<text x="1548.0" y="1171.0" text-anchor="middle" fill="#e0e0f0" font-size="9" font-family="monospace">production</text>
<text x="1548.0" y="1207.0" text-anchor="middle" fill="#9090b0" font-size="7" font-family="monospace">(15,6)</text>
<text x="20" y="24" fill="#e0e0f0" font-size="14" font-family="monospace" font-weight="bold">owb_mogushan_vault [OMV]</text>
<text x="20" y="40" fill="#9090b0" font-size="9" font-family="monospace">nodes: 23 | file: common/national_focus/owb_mogushan_vault.txt</text>
</svg>